solid cord_guide
  facet normal 0.000000 -1.000000 0.000000
    outer loop
      vertex 0.000000 0.000000 0.000000
      vertex 25.000000 0.000000 0.000000
      vertex 25.000000 0.000000 30.000000
    endloop
  endfacet
  facet normal 0.000000 -1.000000 0.000000
    outer loop
      vertex 0.000000 0.000000 0.000000
      vertex 25.000000 0.000000 30.000000
      vertex 15.500000 0.000000 30.000000
    endloop
  endfacet
  facet normal 0.000000 -1.000000 0.000000
    outer loop
      vertex 0.000000 0.000000 0.000000
      vertex 15.500000 0.000000 30.000000
      vertex 9.500000 0.000000 30.000000
    endloop
  endfacet
  facet normal 0.000000 -1.000000 0.000000
    outer loop
      vertex 0.000000 0.000000 0.000000
      vertex 9.500000 0.000000 30.000000
      vertex 0.000000 0.000000 30.000000
    endloop
  endfacet
  facet normal 0.000000 -1.000000 0.000000
    outer loop
      vertex 9.500000 0.000000 30.000000
      vertex 12.500000 0.000000 22.000000
      vertex 15.500000 0.000000 30.000000
    endloop
  endfacet
  facet normal 0.000000 1.000000 0.000000
    outer loop
      vertex 25.000000 20.000000 30.000000
      vertex 25.000000 20.000000 0.000000
      vertex 0.000000 20.000000 0.000000
    endloop
  endfacet
  facet normal -0.000000 1.000000 0.000000
    outer loop
      vertex 15.500000 20.000000 30.000000
      vertex 25.000000 20.000000 30.000000
      vertex 0.000000 20.000000 0.000000
    endloop
  endfacet
  facet normal -0.000000 1.000000 0.000000
    outer loop
      vertex 9.500000 20.000000 30.000000
      vertex 15.500000 20.000000 30.000000
      vertex 0.000000 20.000000 0.000000
    endloop
  endfacet
  facet normal -0.000000 1.000000 0.000000
    outer loop
      vertex 0.000000 20.000000 30.000000
      vertex 9.500000 20.000000 30.000000
      vertex 0.000000 20.000000 0.000000
    endloop
  endfacet
  facet normal 0.000000 1.000000 0.000000
    outer loop
      vertex 15.500000 20.000000 30.000000
      vertex 12.500000 20.000000 22.000000
      vertex 9.500000 20.000000 30.000000
    endloop
  endfacet
  facet normal 0.000000 0.000000 -1.000000
    outer loop
      vertex 0.000000 0.000000 0.000000
      vertex 25.000000 20.000000 0.000000
      vertex 25.000000 0.000000 0.000000
    endloop
  endfacet
  facet normal 0.000000 0.000000 -1.000000
    outer loop
      vertex 0.000000 0.000000 0.000000
      vertex 0.000000 20.000000 0.000000
      vertex 25.000000 20.000000 0.000000
    endloop
  endfacet
  facet normal 1.000000 0.000000 0.000000
    outer loop
      vertex 25.000000 0.000000 0.000000
      vertex 25.000000 20.000000 30.000000
      vertex 25.000000 0.000000 30.000000
    endloop
  endfacet
  facet normal 1.000000 0.000000 0.000000
    outer loop
      vertex 25.000000 0.000000 0.000000
      vertex 25.000000 20.000000 0.000000
      vertex 25.000000 20.000000 30.000000
    endloop
  endfacet
  facet normal 0.000000 0.000000 1.000000
    outer loop
      vertex 25.000000 0.000000 30.000000
      vertex 15.500000 20.000000 30.000000
      vertex 15.500000 0.000000 30.000000
    endloop
  endfacet
  facet normal 0.000000 -0.000000 1.000000
    outer loop
      vertex 25.000000 0.000000 30.000000
      vertex 25.000000 20.000000 30.000000
      vertex 15.500000 20.000000 30.000000
    endloop
  endfacet
  facet normal -0.936329 0.000000 0.351123
    outer loop
      vertex 15.500000 0.000000 30.000000
      vertex 12.500000 20.000000 22.000000
      vertex 12.500000 0.000000 22.000000
    endloop
  endfacet
  facet normal -0.936329 0.000000 0.351123
    outer loop
      vertex 15.500000 0.000000 30.000000
      vertex 15.500000 20.000000 30.000000
      vertex 12.500000 20.000000 22.000000
    endloop
  endfacet
  facet normal 0.936329 0.000000 0.351123
    outer loop
      vertex 12.500000 0.000000 22.000000
      vertex 9.500000 20.000000 30.000000
      vertex 9.500000 0.000000 30.000000
    endloop
  endfacet
  facet normal 0.936329 -0.000000 0.351123
    outer loop
      vertex 12.500000 0.000000 22.000000
      vertex 12.500000 20.000000 22.000000
      vertex 9.500000 20.000000 30.000000
    endloop
  endfacet
  facet normal 0.000000 0.000000 1.000000
    outer loop
      vertex 9.500000 0.000000 30.000000
      vertex 0.000000 20.000000 30.000000
      vertex 0.000000 0.000000 30.000000
    endloop
  endfacet
  facet normal 0.000000 -0.000000 1.000000
    outer loop
      vertex 9.500000 0.000000 30.000000
      vertex 9.500000 20.000000 30.000000
      vertex 0.000000 20.000000 30.000000
    endloop
  endfacet
  facet normal -1.000000 0.000000 0.000000
    outer loop
      vertex 0.000000 0.000000 30.000000
      vertex 0.000000 20.000000 0.000000
      vertex 0.000000 0.000000 0.000000
    endloop
  endfacet
  facet normal -1.000000 0.000000 0.000000
    outer loop
      vertex 0.000000 0.000000 30.000000
      vertex 0.000000 20.000000 30.000000
      vertex 0.000000 20.000000 0.000000
    endloop
  endfacet
endsolid cord_guide
