solid cradle
  facet normal 0.000000 -1.000000 0.000000
    outer loop
      vertex 0.000000 0.000000 0.000000
      vertex 50.000000 0.000000 0.000000
      vertex 50.000000 0.000000 35.000000
    endloop
  endfacet
  facet normal 0.000000 -1.000000 0.000000
    outer loop
      vertex 0.000000 0.000000 0.000000
      vertex 50.000000 0.000000 35.000000
      vertex 33.660254 0.000000 35.000000
    endloop
  endfacet
  facet normal 0.000000 -1.000000 0.000000
    outer loop
      vertex 0.000000 0.000000 0.000000
      vertex 33.660254 0.000000 35.000000
      vertex 16.339746 0.000000 35.000000
    endloop
  endfacet
  facet normal 0.000000 -1.000000 0.000000
    outer loop
      vertex 0.000000 0.000000 0.000000
      vertex 16.339746 0.000000 35.000000
      vertex 0.000000 0.000000 35.000000
    endloop
  endfacet
  facet normal 0.000000 -1.000000 0.000000
    outer loop
      vertex 16.339746 0.000000 35.000000
      vertex 25.000000 0.000000 20.000000
      vertex 33.660254 0.000000 35.000000
    endloop
  endfacet
  facet normal 0.000000 1.000000 0.000000
    outer loop
      vertex 50.000000 38.000000 35.000000
      vertex 50.000000 38.000000 0.000000
      vertex 0.000000 38.000000 0.000000
    endloop
  endfacet
  facet normal -0.000000 1.000000 0.000000
    outer loop
      vertex 33.660254 38.000000 35.000000
      vertex 50.000000 38.000000 35.000000
      vertex 0.000000 38.000000 0.000000
    endloop
  endfacet
  facet normal -0.000000 1.000000 0.000000
    outer loop
      vertex 16.339746 38.000000 35.000000
      vertex 33.660254 38.000000 35.000000
      vertex 0.000000 38.000000 0.000000
    endloop
  endfacet
  facet normal -0.000000 1.000000 0.000000
    outer loop
      vertex 0.000000 38.000000 35.000000
      vertex 16.339746 38.000000 35.000000
      vertex 0.000000 38.000000 0.000000
    endloop
  endfacet
  facet normal 0.000000 1.000000 0.000000
    outer loop
      vertex 33.660254 38.000000 35.000000
      vertex 25.000000 38.000000 20.000000
      vertex 16.339746 38.000000 35.000000
    endloop
  endfacet
  facet normal 0.000000 0.000000 -1.000000
    outer loop
      vertex 0.000000 0.000000 0.000000
      vertex 50.000000 38.000000 0.000000
      vertex 50.000000 0.000000 0.000000
    endloop
  endfacet
  facet normal 0.000000 0.000000 -1.000000
    outer loop
      vertex 0.000000 0.000000 0.000000
      vertex 0.000000 38.000000 0.000000
      vertex 50.000000 38.000000 0.000000
    endloop
  endfacet
  facet normal 1.000000 0.000000 0.000000
    outer loop
      vertex 50.000000 0.000000 0.000000
      vertex 50.000000 38.000000 35.000000
      vertex 50.000000 0.000000 35.000000
    endloop
  endfacet
  facet normal 1.000000 0.000000 0.000000
    outer loop
      vertex 50.000000 0.000000 0.000000
      vertex 50.000000 38.000000 0.000000
      vertex 50.000000 38.000000 35.000000
    endloop
  endfacet
  facet normal 0.000000 0.000000 1.000000
    outer loop
      vertex 50.000000 0.000000 35.000000
      vertex 33.660254 38.000000 35.000000
      vertex 33.660254 0.000000 35.000000
    endloop
  endfacet
  facet normal 0.000000 -0.000000 1.000000
    outer loop
      vertex 50.000000 0.000000 35.000000
      vertex 50.000000 38.000000 35.000000
      vertex 33.660254 38.000000 35.000000
    endloop
  endfacet
  facet normal -0.866025 0.000000 0.500000
    outer loop
      vertex 33.660254 0.000000 35.000000
      vertex 25.000000 38.000000 20.000000
      vertex 25.000000 0.000000 20.000000
    endloop
  endfacet
  facet normal -0.866025 0.000000 0.500000
    outer loop
      vertex 33.660254 0.000000 35.000000
      vertex 33.660254 38.000000 35.000000
      vertex 25.000000 38.000000 20.000000
    endloop
  endfacet
  facet normal 0.866025 0.000000 0.500000
    outer loop
      vertex 25.000000 0.000000 20.000000
      vertex 16.339746 38.000000 35.000000
      vertex 16.339746 0.000000 35.000000
    endloop
  endfacet
  facet normal 0.866025 -0.000000 0.500000
    outer loop
      vertex 25.000000 0.000000 20.000000
      vertex 25.000000 38.000000 20.000000
      vertex 16.339746 38.000000 35.000000
    endloop
  endfacet
  facet normal 0.000000 0.000000 1.000000
    outer loop
      vertex 16.339746 0.000000 35.000000
      vertex 0.000000 38.000000 35.000000
      vertex 0.000000 0.000000 35.000000
    endloop
  endfacet
  facet normal 0.000000 -0.000000 1.000000
    outer loop
      vertex 16.339746 0.000000 35.000000
      vertex 16.339746 38.000000 35.000000
      vertex 0.000000 38.000000 35.000000
    endloop
  endfacet
  facet normal -1.000000 0.000000 0.000000
    outer loop
      vertex 0.000000 0.000000 35.000000
      vertex 0.000000 38.000000 0.000000
      vertex 0.000000 0.000000 0.000000
    endloop
  endfacet
  facet normal -1.000000 0.000000 0.000000
    outer loop
      vertex 0.000000 0.000000 35.000000
      vertex 0.000000 38.000000 35.000000
      vertex 0.000000 38.000000 0.000000
    endloop
  endfacet
endsolid cradle
