solid spool_holder
  facet normal 0.000000 -1.000000 0.000000
    outer loop
      vertex 0.000000 0.000000 0.000000
      vertex 30.000000 0.000000 0.000000
      vertex 30.000000 0.000000 55.000000
    endloop
  endfacet
  facet normal 0.000000 -1.000000 0.000000
    outer loop
      vertex 0.000000 0.000000 0.000000
      vertex 30.000000 0.000000 55.000000
      vertex 22.000000 0.000000 55.000000
    endloop
  endfacet
  facet normal 0.000000 -1.000000 0.000000
    outer loop
      vertex 0.000000 0.000000 0.000000
      vertex 22.000000 0.000000 55.000000
      vertex 8.000000 0.000000 55.000000
    endloop
  endfacet
  facet normal 0.000000 -1.000000 0.000000
    outer loop
      vertex 0.000000 0.000000 0.000000
      vertex 8.000000 0.000000 55.000000
      vertex 0.000000 0.000000 55.000000
    endloop
  endfacet
  facet normal 0.000000 -1.000000 0.000000
    outer loop
      vertex 8.000000 0.000000 30.000000
      vertex 22.000000 0.000000 30.000000
      vertex 22.000000 0.000000 55.000000
    endloop
  endfacet
  facet normal 0.000000 -1.000000 0.000000
    outer loop
      vertex 8.000000 0.000000 55.000000
      vertex 8.000000 0.000000 30.000000
      vertex 22.000000 0.000000 55.000000
    endloop
  endfacet
  facet normal 0.000000 1.000000 0.000000
    outer loop
      vertex 30.000000 10.000000 55.000000
      vertex 30.000000 10.000000 0.000000
      vertex 0.000000 10.000000 0.000000
    endloop
  endfacet
  facet normal -0.000000 1.000000 0.000000
    outer loop
      vertex 22.000000 10.000000 55.000000
      vertex 30.000000 10.000000 55.000000
      vertex 0.000000 10.000000 0.000000
    endloop
  endfacet
  facet normal -0.000000 1.000000 0.000000
    outer loop
      vertex 8.000000 10.000000 55.000000
      vertex 22.000000 10.000000 55.000000
      vertex 0.000000 10.000000 0.000000
    endloop
  endfacet
  facet normal -0.000000 1.000000 0.000000
    outer loop
      vertex 0.000000 10.000000 55.000000
      vertex 8.000000 10.000000 55.000000
      vertex 0.000000 10.000000 0.000000
    endloop
  endfacet
  facet normal 0.000000 1.000000 0.000000
    outer loop
      vertex 22.000000 10.000000 55.000000
      vertex 22.000000 10.000000 30.000000
      vertex 8.000000 10.000000 30.000000
    endloop
  endfacet
  facet normal 0.000000 1.000000 0.000000
    outer loop
      vertex 22.000000 10.000000 55.000000
      vertex 8.000000 10.000000 30.000000
      vertex 8.000000 10.000000 55.000000
    endloop
  endfacet
  facet normal 0.000000 0.000000 -1.000000
    outer loop
      vertex 0.000000 0.000000 0.000000
      vertex 30.000000 10.000000 0.000000
      vertex 30.000000 0.000000 0.000000
    endloop
  endfacet
  facet normal 0.000000 0.000000 -1.000000
    outer loop
      vertex 0.000000 0.000000 0.000000
      vertex 0.000000 10.000000 0.000000
      vertex 30.000000 10.000000 0.000000
    endloop
  endfacet
  facet normal 1.000000 0.000000 0.000000
    outer loop
      vertex 30.000000 0.000000 0.000000
      vertex 30.000000 10.000000 55.000000
      vertex 30.000000 0.000000 55.000000
    endloop
  endfacet
  facet normal 1.000000 0.000000 0.000000
    outer loop
      vertex 30.000000 0.000000 0.000000
      vertex 30.000000 10.000000 0.000000
      vertex 30.000000 10.000000 55.000000
    endloop
  endfacet
  facet normal 0.000000 0.000000 1.000000
    outer loop
      vertex 30.000000 0.000000 55.000000
      vertex 22.000000 10.000000 55.000000
      vertex 22.000000 0.000000 55.000000
    endloop
  endfacet
  facet normal 0.000000 -0.000000 1.000000
    outer loop
      vertex 30.000000 0.000000 55.000000
      vertex 30.000000 10.000000 55.000000
      vertex 22.000000 10.000000 55.000000
    endloop
  endfacet
  facet normal -1.000000 0.000000 0.000000
    outer loop
      vertex 22.000000 0.000000 55.000000
      vertex 22.000000 10.000000 30.000000
      vertex 22.000000 0.000000 30.000000
    endloop
  endfacet
  facet normal -1.000000 0.000000 0.000000
    outer loop
      vertex 22.000000 0.000000 55.000000
      vertex 22.000000 10.000000 55.000000
      vertex 22.000000 10.000000 30.000000
    endloop
  endfacet
  facet normal 0.000000 0.000000 1.000000
    outer loop
      vertex 22.000000 0.000000 30.000000
      vertex 8.000000 10.000000 30.000000
      vertex 8.000000 0.000000 30.000000
    endloop
  endfacet
  facet normal 0.000000 -0.000000 1.000000
    outer loop
      vertex 22.000000 0.000000 30.000000
      vertex 22.000000 10.000000 30.000000
      vertex 8.000000 10.000000 30.000000
    endloop
  endfacet
  facet normal 1.000000 0.000000 0.000000
    outer loop
      vertex 8.000000 0.000000 30.000000
      vertex 8.000000 10.000000 55.000000
      vertex 8.000000 0.000000 55.000000
    endloop
  endfacet
  facet normal 1.000000 0.000000 0.000000
    outer loop
      vertex 8.000000 0.000000 30.000000
      vertex 8.000000 10.000000 30.000000
      vertex 8.000000 10.000000 55.000000
    endloop
  endfacet
  facet normal 0.000000 0.000000 1.000000
    outer loop
      vertex 8.000000 0.000000 55.000000
      vertex 0.000000 10.000000 55.000000
      vertex 0.000000 0.000000 55.000000
    endloop
  endfacet
  facet normal 0.000000 -0.000000 1.000000
    outer loop
      vertex 8.000000 0.000000 55.000000
      vertex 8.000000 10.000000 55.000000
      vertex 0.000000 10.000000 55.000000
    endloop
  endfacet
  facet normal -1.000000 0.000000 0.000000
    outer loop
      vertex 0.000000 0.000000 55.000000
      vertex 0.000000 10.000000 0.000000
      vertex 0.000000 0.000000 0.000000
    endloop
  endfacet
  facet normal -1.000000 0.000000 0.000000
    outer loop
      vertex 0.000000 0.000000 55.000000
      vertex 0.000000 10.000000 55.000000
      vertex 0.000000 10.000000 0.000000
    endloop
  endfacet
endsolid spool_holder
